<svg xmlns="http://www.w3.org/2000/svg" viewBox="0 0 400 240" fill="none">
  <defs>
    <linearGradient id="labBg" x1="0" y1="0" x2="0" y2="1">
      <stop offset="0%" stop-color="#1a1512"/>
      <stop offset="100%" stop-color="#0f0d0a"/>
    </linearGradient>
    <linearGradient id="barGrad1" x1="0" y1="0" x2="0" y2="1">
      <stop offset="0%" stop-color="#d99a38"/>
      <stop offset="100%" stop-color="#b87316"/>
    </linearGradient>
  </defs>
  <rect width="400" height="240" rx="12" fill="url(#labBg)"/>
  <!-- Grid lines -->
  <line x1="40" y1="50" x2="360" y2="50" stroke="rgba(255,255,255,0.04)" stroke-width="0.5"/>
  <line x1="40" y1="90" x2="360" y2="90" stroke="rgba(255,255,255,0.04)" stroke-width="0.5"/>
  <line x1="40" y1="130" x2="360" y2="130" stroke="rgba(255,255,255,0.04)" stroke-width="0.5"/>
  <line x1="40" y1="170" x2="360" y2="170" stroke="rgba(255,255,255,0.04)" stroke-width="0.5"/>
  <!-- Bar chart -->
  <rect x="50" y="100" width="28" height="70" rx="4" fill="#b87316" opacity="0.3"/>
  <rect x="90" y="70" width="28" height="100" rx="4" fill="#b87316" opacity="0.4"/>
  <rect x="130" y="45" width="28" height="125" rx="4" fill="url(#barGrad1)" opacity="0.7"/>
  <rect x="170" y="80" width="28" height="90" rx="4" fill="#d99a38" opacity="0.5"/>
  <rect x="210" y="55" width="28" height="115" rx="4" fill="#b87316" opacity="0.45"/>
  <rect x="250" y="95" width="28" height="75" rx="4" fill="#b87316" opacity="0.35"/>
  <rect x="290" y="60" width="28" height="110" rx="4" fill="#c98312" opacity="0.5"/>
  <rect x="330" y="75" width="28" height="95" rx="4" fill="#d99a38" opacity="0.4"/>
  <!-- Labels -->
  <text x="200" y="200" text-anchor="middle" fill="#e9c488" font-family="Arial,sans-serif" font-size="10" opacity="0.6">Third-Party Lab Analysis</text>
  <!-- Highlight line -->
  <line x1="125" y1="185" x2="165" y2="185" stroke="#c98312" stroke-width="1.5" opacity="0.5"/>
  <text x="165" y="188" fill="#c98312" font-family="Arial,sans-serif" font-size="7" opacity="0.6">2000 mg</text>
</svg>